#!OML:ASF I:\Actors\actors\Patient Classification 1\Patient 1\Session 1\Subject1.ASF
:FULLY-SPECIFIED
:DEGREES
2024
root -1.22182 17.4226 8.31411 6.05225 -3.86469 -9.7689
lowerback 6.4252 1.29763 5.98929
upperback -7.33169 2.66764 2.0072
thorax -11.3619 0.888319 -1.60768
lowerneck -6.96024 -2.50775 -2.17824
upperneck 12.6331 -4.76533 11.9093
head 5.28487 -1.68208 3.76498
rclavicle -1.55052e-014 -8.66701e-014
rhumerus -56.5401 -11.4911 -67.1574
rradius 45.3166
rwrist 29.3159
rhand 186.253 151.699
rfingers 7.12502
rthumb 31.5647 -1135.59
lclavicle -1.55052e-014 -8.66701e-014
lhumerus -49.4713 38.4823 53.5324
lradius 19.2765
lwrist -49.7963
lhand -12.2547 8.16924
lfingers 7.12502
lthumb 13.8116 37.6907
rfemur 0.564069 13.973 35.1352
rtibia 5.13646
rfoot -14.1714 -23.6834
rtoes 18.44
lfemur -6.98142 -3.45481 6.05415
ltibia 19.0595
lfoot -4.876 8.50886
ltoes -22.9876
2025
root -1.21253 17.4158 8.32561 6.18641 -3.97641 -9.92389
lowerback 6.27852 1.31375 5.95917
upperback -7.4111 2.69506 2.17713
thorax -11.3715 0.911601 -1.40745
lowerneck -7.09767 -2.48761 -2.21107
upperneck 12.8373 -4.78135 12.074
head 5.37789 -1.6686 3.82267
rclavicle -7.60351e-015 3.53837e-014
rhumerus -56.507 -11.5575 -66.9081
rradius 45.231
rwrist 29.4467
rhand 186.127 151.591
rfingers 7.12502
rthumb 31.4446 -1135.72
lclavicle -7.60351e-015 3.53837e-014
lhumerus -49.7292 38.2744 53.6188
lradius 19.2763
lwrist -49.7259
lhand -12.0626 8.24049
lfingers 7.12502
lthumb 13.9967 37.7493
rfemur 0.507773 13.8543 35.2165
rtibia 5.048
rfoot -14.1269 -23.4334
rtoes 18.1873
lfemur -6.77981 -6.08699 4.96616
ltibia 18.857
lfoot -6.0212 12.3974
ltoes -21.9074
2026
root -1.20381 17.4104 8.3348 6.33516 -4.12194 -10.1055
lowerback 6.15072 1.37611 5.98029
upperback -7.50558 2.7888 2.29961
thorax -11.4017 0.95931 -1.29761
lowerneck -7.09389 -2.55889 -2.25437
upperneck 12.7999 -4.90162 12.2931
head 5.38168 -1.71673 3.89078
rclavicle 2.66868e-014 -9.93923e-015
rhumerus -56.522 -11.8682 -66.6313
rradius 45.1255
rwrist 29.5993
rhand 185.985 151.56
rfingers 7.12502
rthumb 31.309 -1135.78
lclavicle 2.66868e-014 -9.93923e-015
lhumerus -49.8402 37.9142 53.7847
lradius 19.2303
lwrist -49.6178
lhand -11.8843 8.42823
lfingers 7.12502
lthumb 14.1684 37.9251
rfemur 0.429251 13.6232 35.2941
rtibia 4.94677
rfoot -13.9643 -23.0514
rtoes 17.4109
lfemur -6.73308 -8.67997 3.94892
ltibia 18.9319
lfoot -6.94878 16.1
ltoes -18.7486
2027
root -1.19461 17.4062 8.33906 6.46472 -4.26552 -10.3964
lowerback 6.07525 1.43588 6.09437
upperback -7.59173 2.89686 2.45165
thorax -11.4528 1.00709 -1.21086
lowerneck -7.05335 -2.61831 -2.04027
upperneck 12.7529 -4.99552 12.2316
head 5.36181 -1.75929 3.82808
rclavicle 1.51076e-014 7.15625e-015
rhumerus -56.5427 -12.1727 -66.4158
rradius 45.0954
rwrist 29.7011
rhand 185.87 151.625
rfingers 7.12502
rthumb 31.1998 -1135.74
lclavicle 1.51076e-014 7.15625e-015
lhumerus -50.0073 37.7287 53.774
lradius 19.1266
lwrist -49.6642
lhand -11.7794 8.63507
lfingers 7.12502
lthumb 14.2696 38.1248
rfemur 0.367889 13.4027 35.4984
rtibia 4.83668
rfoot -13.7483 -22.6645
rtoes 16.6153
lfemur -6.76989 -10.9066 3.18266
ltibia 19.1728
lfoot -7.39301 19.4094
ltoes -15.0959
2028
root -1.18652 17.4004 8.34263 6.61344 -4.44639 -10.739
lowerback 5.98312 1.48337 6.17918
upperback -7.67683 2.98908 2.66093
thorax -11.4985 1.05298 -1.04276
lowerneck -7.00269 -2.62481 -1.69068
upperneck 12.7466 -5.01743 12.0294
head 5.34055 -1.76806 3.70373
rclavicle 1.63997e-014 -4.65156e-014
rhumerus -56.5439 -12.2347 -66.3511
rradius 45.1808
rwrist 29.6583
rhand 185.788 151.615
rfingers 7.12502
rthumb 31.1216 -1135.76
lclavicle 1.63997e-014 -4.65156e-014
lhumerus -50.224 37.63 53.7138
lradius 18.9978
lwrist -49.6576
lhand -11.6314 8.65532
lfingers 7.12502
lthumb 14.4122 38.1349
rfemur 0.287501 13.2738 35.7718
rtibia 4.75961
rfoot -13.6311 -22.2955
rtoes 16.4357
lfemur -6.84631 -12.6832 2.62234
ltibia 19.4861
lfoot -7.29813 22.2752
ltoes -11.7097
2029
root -1.1799 17.3932 8.34781 6.78068 -4.70632 -11.0924
lowerback 5.86481 1.54287 6.21885
upperback -7.74771 3.08955 2.87768
thorax -11.5142 1.10827 -0.841725
lowerneck -7.01972 -2.59248 -1.48213
upperneck 12.8128 -5.00613 12.0244
head 5.3591 -1.74957 3.66844
rclavicle -1.95803e-014 -1.98785e-014
rhumerus -56.4236 -12.2134 -66.4364
rradius 45.2154
rwrist 29.5635
rhand 185.685 151.629
rfingers 7.12502
rthumb 31.0235 -1135.77
lclavicle -1.95803e-014 -1.98785e-014
lhumerus -50.3863 37.4752 53.7079
lradius 18.897
lwrist -49.6419
lhand -11.4615 8.48874
lfingers 7.12502
lthumb 14.5759 37.9566
rfemur 0.211486 13.1646 36.0634
rtibia 4.68743
rfoot -13.525 -21.8695
rtoes 16.2803
lfemur -6.97851 -14.1259 2.21863
ltibia 19.9225
lfoot -6.75948 24.6587
ltoes -9.1068
2030
root -1.17467 17.3877 8.35171 6.8737 -5.00621 -11.3379
lowerback 5.82951 1.63418 6.15689
upperback -7.7877 3.2209 3.03186
thorax -11.544 1.18375 -0.659274
lowerneck -7.08017 -2.59324 -1.50263
upperneck 12.8315 -5.04777 12.2984
head 5.38656 -1.7503 3.75574
rclavicle 1.15295e-014 2.90226e-014
rhumerus -56.1909 -12.3248 -66.562
rradius 45.1067
rwrist 29.6482
rhand 185.547 151.842
rfingers 7.12502
rthumb 30.8912 -1135.58
lclavicle 1.15295e-014 2.90226e-014
lhumerus -50.4722 37.3452 53.6735
lradius 18.8073
lwrist -49.9258
lhand -11.3958 8.40316
lfingers 7.12502
lthumb 14.6392 37.8664
rfemur 0.225447 13.0553 36.2625
rtibia 4.59429
rfoot -13.3851 -21.448
rtoes 15.8663
lfemur -7.14391 -15.4754 1.81303
ltibia 20.5705
lfoot -6.02301 26.5609
ltoes -7.54946
2031
root -1.17246 17.3841 8.35174 6.89927 -5.30603 -11.5226
lowerback 5.91225 1.75508 6.05169
upperback -7.83287 3.39325 3.12766
thorax -11.6491 1.27729 -0.526229
lowerneck -7.08685 -2.66569 -1.58718
upperneck 12.7757 -5.18535 12.6765
head 5.39339 -1.79904 3.8799
rclavicle -1.07344e-014 1.98785e-014
rhumerus -56.0153 -12.567 -66.6581
rradius 44.9451
rwrist 29.9191
rhand 185.474 152.249
rfingers 7.12502
rthumb 30.8217 -1135.19
lclavicle -1.07344e-014 1.98785e-014
lhumerus -50.5329 37.2775 53.5355
lradius 18.6879
lwrist -50.4918
lhand -11.4056 8.35862
lfingers 7.12502
lthumb 14.6297 37.8226
rfemur 0.275917 13.0144 36.4335
rtibia 4.5396
rfoot -13.2895 -21.105
rtoes 15.764
lfemur -7.378 -16.7552 1.50237
ltibia 21.4248
lfoot -5.46462 27.9504
ltoes -6.35834
2032
root -1.17251 17.3833 8.3491 6.88841 -5.55507 -11.7105
lowerback 6.06694 1.86036 5.93274
upperback -7.89464 3.55072 3.22108
thorax -11.8203 1.36278 -0.388842
lowerneck -7.04153 -2.75702 -1.52367
upperneck 12.7512 -5.34124 12.8568
head 5.39406 -1.86292 3.91552
rclavicle 1.98785e-014 2.78299e-014
rhumerus -55.9258 -12.8185 -66.7564
rradius 44.8218
rwrist 30.22
rhand 185.546 152.662
rfingers 7.12502
rthumb 30.8904 -1134.76
lclavicle 1.98785e-014 2.78299e-014
lhumerus -50.5072 37.0291 53.549
lradius 18.5981
lwrist -50.9146
lhand -11.4396 8.17095
lfingers 7.12502
lthumb 14.597 37.6373
rfemur 0.333647 12.947 36.6229
rtibia 4.4957
rfoot -13.2076 -20.784
rtoes 15.8813
lfemur -7.78924 -17.845 1.40083
ltibia 22.5436
lfoot -4.93003 28.6752
ltoes -5.61422
